# xmcd
#
# Track frame offsets: 
#        150
#        19780
#        36564
#        55146
#        67274
#        79100
#        96345
#        112917
#        126382
#        146349
#        165417
#        182267
#        197397
#        205200
#        222183
#        234399
#        246439
#        260012
#        277589
#
# Disc length: 3904 seconds
#
# Revision: 0
# Processed by: cddbd v1.5.2PL0 Copyright (c) Steve Scherf et al.
# Submitted via: ExactAudioCopy v0.95b4
#
DISCID=0d0f3e13
DTITLE=Various Artist - du Blues dans mon quartier
DYEAR=1900
DGENRE=blues
TTITLE0=L' train va partir
TTITLE1=Y'a du blues dans mon école
TTITLE2=CowBoy bigleux
TTITLE3=Tu peux cogner (mais tu peux pas rentrer)
TTITLE4=Dans mon quartier
TTITLE5=Halloween Party
TTITLE6=Ma belle
TTITLE7=Le flemmard
TTITLE8=D'vant la ch'minée
TTITLE9=Le blues au bout de mon lit
TTITLE10=Mon ecole
TTITLE11=Danser le Boogie
TTITLE12=L'train
TTITLE13=Y'a du blues dans mon école - instru
TTITLE14=Tu peux cogner (mais tu peux pas rentrer) - instru
TTITLE15=Dans mon quartier - instru
TTITLE16=Le flemmard - instru
TTITLE17=Mon ecole - instru
TTITLE18=Danser le Boogie - instru
EXTD=
EXTT0=
EXTT1=
EXTT2=
EXTT3=
EXTT4=
EXTT5=
EXTT6=
EXTT7=
EXTT8=
EXTT9=
EXTT10=
EXTT11=
EXTT12=
EXTT13=
EXTT14=
EXTT15=
EXTT16=
EXTT17=
EXTT18=
PLAYORDER=
